<svg width="59" height="42" viewBox="0 0 59 42" fill="none" xmlns="http://www.w3.org/2000/svg">
<path d="M39.0144 21.3998L58.8249 33.9236V8.34705L39.0144 21.3998Z" fill="#1E959B"/>
<path d="M0.0618896 8.34705V33.9236L19.8724 21.3998L0.0618896 8.34705Z" fill="#1E959B"/>
<path d="M55.1515 0.898926H3.73389C1.90122 0.898926 0.446838 2.26516 0.171387 4.02438L29.4427 23.3096L58.714 4.02438C58.4385 2.26516 56.9841 0.898926 55.1515 0.898926Z" fill="#1E959B"/>
<path d="M35.6502 23.6182L30.4534 27.0411C30.1449 27.2431 29.796 27.3423 29.4434 27.3423C29.0908 27.3423 28.7419 27.2431 28.4334 27.0411L23.2366 23.6145L0.179443 38.1987C0.46224 39.9433 1.90928 41.2985 3.7346 41.2985H55.1522C56.9775 41.2985 58.4245 39.9433 58.7073 38.1987L35.6502 23.6182Z" fill="#1E959B"/>
</svg>
