<svg width="359" height="87" viewBox="0 0 359 87" fill="none" xmlns="http://www.w3.org/2000/svg">
<g clip-path="url(#clip0_7055_1039)">
<path d="M318.108 85.742H317.829L206.992 77.7103L70.6946 83.9806L70.555 83.9102L2.5459 42.4131L3.59219 41.9199L95.6661 2.04321H95.7359L201.76 8.24312L325.014 4.72045L325.223 4.93181L356.682 42.4835L356.333 42.9062L318.108 85.742ZM207.062 76.5126L317.62 84.5443L355.147 42.4835L324.526 5.98861L201.76 9.51129L95.8754 3.31138L5.12676 42.6244L70.9736 82.7829L207.062 76.5126Z" fill="url(#paint0_linear_7055_1039)"/>
<path d="M318.596 86.2351L317.55 85.5305L279.744 60.6605L208.108 77.2875L208.735 77.7102L207.55 77.4988V77.992L206.922 77.5693L206.713 77.7102V77.5693L204.48 78.0625L205.736 77.3579L110.732 61.1536L69.927 84.3328L70.3455 83.1351L78.8554 55.7287L0.871582 42.4834L87.5048 27.7587L95.5264 1.90222L96.0844 2.25449L124.753 21.4178L200.435 8.52485L199.319 7.74986L201.272 8.17259V8.03168L201.621 8.24304L202.109 7.96122V8.31349L203.713 8.03168L203.016 8.4544L304.297 22.5451H304.367L304.646 22.6156L324.804 4.72036L325.502 5.49535L306.111 22.686H306.738L306.041 23.1087L356.054 42.0607L356.333 42.1312L356.891 42.3425L357.658 42.4834L357.449 42.5539L357.588 42.6244L355.984 43.0471L311.621 53.3333L318.596 86.2351ZM281.069 60.4491L317.062 84.1215L310.645 53.5447L281.069 60.4491ZM79.8319 55.9401L71.6708 82.2897L109.128 60.9423L79.8319 55.9401ZM202.318 9.86347L207.48 76.3011L259.585 47.4857L202.318 9.86347ZM112.128 60.4491L204.76 76.2307L149.445 39.1721L112.128 60.4491ZM150.422 38.6085L206.434 76.0898L201.272 9.65211L150.422 38.6085ZM260.562 48.1197L210.479 75.808L278.628 59.9559L260.562 48.1197ZM80.1109 54.9537L110.523 60.1673L148.469 38.5381L124.474 22.4746L88.272 28.6041L80.1109 54.9537ZM261.538 47.5561L279.953 59.6037L310.505 52.4879L306.25 32.1268L294.253 29.52L261.538 47.5561ZM6.87034 42.4834L79.1344 54.8128L87.156 28.8155L6.87034 42.4834ZM307.227 32.4086L311.412 52.3469L353.543 42.5539L307.227 32.4086ZM204.271 9.93392L260.562 46.922L292.648 29.2382L204.271 9.93392ZM307.017 31.2813L349.288 40.5107L305.413 23.8837L307.017 31.2813ZM125.939 22.2633L149.515 38.0449L199.04 9.86347L125.939 22.2633ZM295.508 28.8155L305.971 31.07L304.436 23.8837L295.508 28.8155ZM214.595 11.1316L293.974 28.4632L303.181 23.3905L297.252 22.5451L214.595 11.1316ZM96.0844 3.4522L88.6208 27.5473L123.288 21.6292L96.0844 3.4522Z" fill="url(#paint1_linear_7055_1039)"/>
<path d="M201.76 10.6384C202.723 10.6384 203.504 9.84982 203.504 8.87706C203.504 7.9043 202.723 7.11572 201.76 7.11572C200.797 7.11572 200.016 7.9043 200.016 8.87706C200.016 9.84982 200.797 10.6384 201.76 10.6384Z" fill="#1E959B"/>
<path d="M70.834 86.0238C72.2978 86.0238 73.4846 84.8251 73.4846 83.3465C73.4846 81.868 72.2978 80.6693 70.834 80.6693C69.3701 80.6693 68.1833 81.868 68.1833 83.3465C68.1833 84.8251 69.3701 86.0238 70.834 86.0238Z" fill="#1E959B"/>
<path d="M317.829 86.9397C318.792 86.9397 319.573 86.1511 319.573 85.1783C319.573 84.2056 318.792 83.417 317.829 83.417C316.866 83.417 316.085 84.2056 316.085 85.1783C316.085 86.1511 316.866 86.9397 317.829 86.9397Z" fill="#1E959B"/>
<path d="M355.914 45.1609C357.378 45.1609 358.565 43.9622 358.565 42.4836C358.565 41.005 357.378 39.8064 355.914 39.8064C354.45 39.8064 353.264 41.005 353.264 42.4836C353.264 43.9622 354.45 45.1609 355.914 45.1609Z" fill="#1E959B"/>
<path d="M324.804 8.5249C326.538 8.5249 327.943 7.10546 327.943 5.35449C327.943 3.60352 326.538 2.18408 324.804 2.18408C323.071 2.18408 321.666 3.60352 321.666 5.35449C321.666 7.10546 323.071 8.5249 324.804 8.5249Z" fill="#1E959B"/>
<path d="M207.062 80.7397C209.026 80.7397 210.619 79.131 210.619 77.1466C210.619 75.1622 209.026 73.5535 207.062 73.5535C205.097 73.5535 203.504 75.1622 203.504 77.1466C203.504 79.131 205.097 80.7397 207.062 80.7397Z" fill="#1E959B"/>
<path d="M3.87112 46.0765C5.83582 46.0765 7.42852 44.4678 7.42852 42.4834C7.42852 40.499 5.83582 38.8903 3.87112 38.8903C1.90642 38.8903 0.313721 40.499 0.313721 42.4834C0.313721 44.4678 1.90642 46.0765 3.87112 46.0765Z" fill="#1E959B"/>
<path d="M95.8056 5.35447C97.2695 5.35447 98.4563 4.15583 98.4563 2.67723C98.4563 1.19864 97.2695 0 95.8056 0C94.3417 0 93.155 1.19864 93.155 2.67723C93.155 4.15583 94.3417 5.35447 95.8056 5.35447Z" fill="#1E959B"/>
<path d="M48.4432 23.0383C50.8845 24.1656 52.6981 25.7155 54.0234 27.7587C55.3487 29.8018 55.9765 32.1973 55.9765 34.9449C55.9765 37.6926 55.3487 40.088 54.0234 42.1312C52.6981 44.1744 50.8845 45.7243 48.4432 46.8516C46.0018 47.9084 43.2117 48.472 39.9333 48.472H32.4V58.7582H23.8901V21.4179H39.8636C43.142 21.4179 46.0018 21.911 48.4432 23.0383ZM45.3043 39.7358C46.6296 38.6085 47.3271 37.0585 47.3271 34.9449C47.3271 32.8313 46.6296 31.2109 45.3043 30.0837C43.979 28.9564 42.0259 28.3928 39.445 28.3928H32.4698V41.3562H39.445C41.9562 41.4267 43.9092 40.863 45.3043 39.7358ZM75.7166 50.5152H70.6246V58.7582H62.2543V28.0405H76.0654C80.2505 28.0405 83.5987 29.0268 86.04 31.07C88.4814 33.1131 89.7369 35.8608 89.7369 39.3835C89.7369 41.638 89.1789 43.5403 88.1326 45.2312C87.0863 46.8516 85.5518 48.1902 83.5987 49.1061L90.3647 58.7582H81.3666L75.7166 50.5152ZM79.9018 35.8608C78.9252 35.0154 77.4604 34.6631 75.5073 34.6631H70.6246V44.1744H75.5073C77.4604 44.1744 78.9252 43.7516 79.9018 42.9766C80.8783 42.1312 81.3666 41.0039 81.3666 39.454C81.3666 37.8335 80.8783 36.6358 79.9018 35.8608ZM102.362 57.2787C99.8511 56.0105 97.7585 54.0378 96.2937 51.572C94.8289 49.1765 94.0616 46.4289 94.0616 43.3994C94.0616 40.3699 94.8289 37.6222 96.2937 35.2268C97.7585 32.7609 99.8511 30.7882 102.362 29.52C104.943 28.1814 107.873 27.4769 111.081 27.4769C114.29 27.4769 117.22 28.1814 119.8 29.52C122.312 30.7882 124.404 32.8313 125.869 35.2268C127.334 37.6926 128.101 40.3699 128.101 43.3994C128.101 46.4289 127.334 49.1765 125.869 51.572C124.404 53.9674 122.312 55.9401 119.8 57.2787C117.22 58.6173 114.29 59.3219 111.081 59.3219C107.873 59.3219 104.943 58.6173 102.362 57.2787ZM115.546 51.2902C116.871 50.5152 117.917 49.3879 118.615 48.0493C119.382 46.6402 119.731 45.0198 119.731 43.3994C119.731 41.638 119.382 40.088 118.615 38.7494C117.917 37.4108 116.801 36.2836 115.546 35.5086C112.825 33.9586 109.477 33.9586 106.757 35.5086C105.431 36.2836 104.385 37.4108 103.618 38.7494C102.85 40.088 102.502 41.7085 102.502 43.3994C102.502 45.0198 102.85 46.5698 103.618 48.0493C104.315 49.3879 105.431 50.5152 106.757 51.2902C109.407 52.8401 112.755 52.8401 115.546 51.2902ZM134.1 28.0405H148.399C151.817 28.0405 154.886 28.6746 157.467 29.8723C160.048 31.07 162.071 32.9018 163.536 35.2268C164.931 37.5517 165.698 40.229 165.698 43.3994C165.698 46.4993 165 49.1765 163.536 51.5015C162.141 53.8265 160.118 55.5878 157.467 56.856C154.886 58.1241 151.817 58.7582 148.399 58.7582H134.1V28.0405ZM148.12 52.1356C150.91 52.1356 153.142 51.3606 154.747 49.8811C156.351 48.4016 157.188 46.2175 157.188 43.4698C157.188 40.7221 156.351 38.5381 154.747 36.9881C153.142 35.4381 150.91 34.6631 148.12 34.6631H142.4V52.1356H148.12ZM175.115 55.6583C172.603 53.1924 171.348 49.8106 171.348 45.513V28.0405H179.718V45.2312C179.718 47.6266 180.207 49.3879 181.253 50.5856C182.299 51.7833 183.834 52.4174 185.857 52.4174C187.81 52.4174 189.344 51.7833 190.321 50.5856C191.367 49.3879 191.855 47.5561 191.855 45.2312V28.0405H200.086V45.513C200.086 49.8106 198.831 53.1924 196.319 55.6583C193.808 58.1241 190.251 59.3219 185.717 59.3219C181.183 59.3219 177.626 58.1241 175.115 55.6583ZM213.897 57.2787C211.386 56.0105 209.294 54.0378 207.829 51.572C206.364 49.1765 205.597 46.4289 205.597 43.3994C205.597 40.3699 206.364 37.6222 207.829 35.2268C209.294 32.8313 211.386 30.8586 213.897 29.52C216.478 28.1814 219.338 27.4769 222.547 27.4769C225.476 27.4769 227.987 27.8996 230.15 28.8155C232.312 29.7314 234.126 31.1405 235.66 33.1131L230.289 38.0449C228.266 35.579 225.825 34.3813 222.895 34.3813C220.314 34.3813 218.222 35.2268 216.548 36.9176C214.874 38.6085 214.037 40.7926 214.037 43.4698C214.037 45.2312 214.385 46.8516 215.153 48.1902C215.85 49.5288 216.966 50.6561 218.292 51.3606C219.687 52.1356 221.291 52.4879 222.895 52.4879C225.825 52.4879 228.266 51.2902 230.289 48.8243L235.66 53.756C234.195 55.6583 232.312 57.0673 230.15 57.9832C227.987 58.8991 225.476 59.3219 222.547 59.3219C219.408 59.3219 216.478 58.6173 213.897 57.2787ZM246.611 34.5927H237.055V28.0405H264.538V34.5927H254.982V58.6878H246.611V34.5927ZM274.722 24.7996V39.454H293.834V42.8357H274.722V58.6878H270.816V21.3474H296.136V24.7292L274.722 24.7996ZM303.32 28.6041H307.087V58.7582H303.32V28.6041ZM323.409 31.7745H312.877V28.6041H337.709V31.7745H327.176V58.7582H323.409V31.7745ZM302.832 22.4042C302.204 23.7428 302.832 25.3633 304.158 25.9269C305.483 26.561 307.087 25.9269 307.645 24.5883C308.273 23.2497 307.645 21.6292 306.32 21.0656C304.995 20.4315 303.39 20.9951 302.832 22.4042Z" fill="#1E959B"/>
</g>
<defs>
<linearGradient id="paint0_linear_7055_1039" x1="2.5466" y1="43.9213" x2="356.677" y2="43.9213" gradientUnits="userSpaceOnUse">
<stop stop-color="#AFDBDE"/>
<stop offset="1" stop-color="#C7E5E7"/>
</linearGradient>
<linearGradient id="paint1_linear_7055_1039" x1="0.837612" y1="44.0689" x2="357.626" y2="44.0689" gradientUnits="userSpaceOnUse">
<stop stop-color="#AFDBDE"/>
<stop offset="1" stop-color="#C7E5E7"/>
</linearGradient>
<clipPath id="clip0_7055_1039">
<rect width="358.251" height="86.9396" fill="white" transform="translate(0.313721)"/>
</clipPath>
</defs>
</svg>
