<svg width="27" height="49" viewBox="0 0 27 49" fill="none" xmlns="http://www.w3.org/2000/svg">
<path d="M23.5356 0.983398H3.55153C1.64036 0.983398 0.0964355 2.53332 0.0964355 4.44449V45.0213C0.0964355 46.9265 1.64036 48.4779 3.55153 48.4779H23.5356C25.4438 48.4779 26.9937 46.928 26.9937 45.0213V4.44449C26.9922 2.53332 25.4438 0.983398 23.5356 0.983398ZM24.402 39.4647H2.68813V6.82184H24.402V39.4647ZM18.1768 4.49546H8.9118V3.48516H18.1784L18.1768 4.49546ZM22.1416 4.03378C22.1416 4.52244 21.7429 4.91816 21.2557 4.91816C20.767 4.91816 20.3698 4.52094 20.3698 4.03378C20.3698 3.54662 20.767 3.14939 21.2557 3.14939C21.7444 3.14789 22.1416 3.54512 22.1416 4.03378ZM17.7616 44.7905H9.32401V42.1943H17.7616V44.7905Z" fill="#1E959B"/>
</svg>
