<svg width="175" height="54" viewBox="0 0 175 54" fill="none" xmlns="http://www.w3.org/2000/svg">
<path d="M170.348 30.4828C168.894 33.145 166.507 36.2181 164.329 36.7312C164.169 36.8128 163.989 36.8482 163.809 36.8333C163.082 36.9354 162.448 36.6291 161.836 36.116C160.474 34.7729 159.865 32.0194 159.865 30.5849C159.968 28.6373 160.591 25.771 161.226 23.7213C161.476 22.9158 161.784 22.1286 162.146 21.3654C160.899 21.9806 159.239 22.5958 157.79 22.7086C157.334 22.7309 156.877 22.6966 156.429 22.6065C156.163 24.0341 155.78 25.4382 155.286 26.8052C153.212 32.2343 149.681 36.9461 147.5 37.3544C146.36 37.5613 144.699 36.1268 144.076 33.5667C142.622 35.7158 140.755 37.8648 138.887 38.0717H138.781C138.105 38.1587 137.418 38.0935 136.771 37.8809C136.124 37.6682 135.534 37.3138 135.046 36.844C133.799 35.5009 133.282 33.2578 133.282 30.2867C134.006 23.3238 141.792 17.7926 146.67 17.4837H146.983C150.928 17.3816 151.548 19.6327 151.654 20.2506C151.758 21.172 151.445 21.9913 150.838 22.1955C150.628 22.1955 150.214 22.3997 149.694 22.6065C148.554 23.1169 147.1 23.63 146.27 23.7321C145.853 23.7321 145.647 23.7321 145.453 23.5279C145.35 23.5279 145.246 23.3238 145.246 23.1169C145.14 22.7086 145.453 22.311 145.97 21.5803C146.284 21.172 147.217 19.9417 147.01 19.6354C146.74 19.5614 146.46 19.527 146.18 19.5333C145.97 19.5333 145.764 19.6354 145.453 19.6354C141.914 20.2506 138.498 29.3653 138.92 33.873C139.334 37.2524 141.825 34.1792 143.382 31.8233C143.303 29.6383 143.842 27.4747 144.939 25.5749C145.355 24.9624 147.326 24.4493 148.26 24.3472C148.382 24.2659 148.53 24.2297 148.676 24.2452C148.987 24.2452 149.3 24.1431 149.61 24.1431C149.811 24.0891 150.022 24.089 150.223 24.1429C150.423 24.1967 150.606 24.3025 150.751 24.4493C150.96 24.6535 150.96 24.9624 150.857 25.3707C149.61 28.6481 148.156 33.5667 148.26 34.6923C149.3 33.8864 152.724 28.1377 154.488 21.5803C154.385 21.2741 154.281 20.9678 154.178 20.5568C153.761 18.0988 154.905 16.4602 155.942 15.6409C156.334 15.3633 156.751 15.1231 157.189 14.9236L157.292 14.8215C157.706 14.6174 158.433 14.3084 158.953 14.3084C159.166 14.2925 159.38 14.3275 159.576 14.4105C160.393 14.9236 160.393 15.845 160.393 16.1539C160.27 17.5878 159.769 18.965 158.939 20.1485C158.939 20.2506 158.836 20.2506 158.836 20.3527H158.939C159.456 20.3527 160.287 20.0437 160.807 19.8396C162.149 19.2858 163.327 18.405 164.231 17.2795L164.441 17.0754C164.697 16.7506 165.014 16.477 165.374 16.2695C165.571 16.1412 165.793 16.0563 166.025 16.0206C166.258 15.9849 166.495 15.9992 166.722 16.0626C167.042 16.2486 167.325 16.4918 167.555 16.7799L167.658 16.8819C168.176 17.6878 168.279 18.8295 168.072 20.5703C167.969 21.9134 167.255 24.1565 166.515 26.6145C165.698 29.4808 164.854 32.4519 164.751 33.8864C165.478 33.4754 167.035 31.9415 167.969 30.3001C170.459 26.1014 171.29 22.9262 171.29 22.9262C171.287 22.9003 171.287 22.8742 171.29 22.8483C171.295 22.8128 171.307 22.7787 171.325 22.7479C171.344 22.7172 171.368 22.6904 171.398 22.6691C171.427 22.6478 171.46 22.6325 171.495 22.6241C171.53 22.6156 171.567 22.6142 171.603 22.6199C171.794 22.5763 171.994 22.5901 172.178 22.6595C172.361 22.7289 172.519 22.8507 172.632 23.0095C173.669 24.5407 170.451 30.276 170.348 30.4828Z" fill="white"/>
<path d="M173.151 42.4665C171.281 39.5975 166.618 39.2912 164.742 39.2912C163.842 39.2795 162.942 39.3136 162.045 39.3933C157.787 39.6995 151.973 40.6236 145.747 41.5424C138.688 42.6679 131.319 43.7962 125.3 44.2045C123.732 44.3227 122.321 44.3818 121.067 44.3818C116.924 44.3818 114.493 43.7451 113.777 42.5659C113.363 41.8495 113.571 40.8251 114.401 39.4927C114.457 39.4381 114.494 39.3662 114.504 39.2885C114.564 39.0252 114.568 38.7524 114.514 38.4877C114.461 38.2231 114.351 37.9724 114.194 37.752C114.044 37.6073 113.864 37.4958 113.667 37.425C113.47 37.3541 113.26 37.3255 113.05 37.3409C111.39 37.4457 109.002 39.5948 108.899 41.3382C108.692 42.9769 109.002 44.2932 109.626 45.3328L109.522 45.4348C108.589 46.9714 107.549 48.1991 106.512 49.6336C106.305 49.9398 105.992 50.2487 105.785 50.555C105.474 50.8639 105.371 51.0681 105.265 51.0681C105.058 50.7591 104.748 49.3273 105.992 42.3617C107.439 33.8081 109.45 25.3568 112.013 17.0619C113.514 16.7849 114.976 16.334 116.369 15.7187C116.759 15.5675 117.14 15.3963 117.512 15.2056C115.642 22.2733 113.048 33.4377 116.475 37.6391C117.409 38.8668 118.86 39.3799 120.626 39.2778C123.482 39.0709 126.231 37.1287 128.436 34.3994C130.674 31.5982 132.228 28.3257 132.977 24.8361C133.29 23.4016 133.184 21.1478 131.836 19.7133C130.903 18.6898 129.552 18.2788 127.995 18.5877C125.818 18.996 122.91 21.5427 120.626 25.1423C122.287 17.5615 125.711 7.31856 126.855 3.735C127.062 3.22191 127.165 2.81359 127.268 2.60674C127.372 2.19842 127.475 1.68533 127.268 1.27701C127.042 1.07629 126.745 0.970325 126.441 0.981517C126.054 1.00895 125.672 1.0774 125.3 1.18568C124.885 1.28955 124.366 1.39253 123.743 1.49461C121.565 1.80085 121.356 2.31394 120.939 3.43951V3.54159C119.799 6.82159 119.382 8.15132 118.968 9.98877C118.814 10.6858 118.605 11.3701 118.345 12.0358C118.206 12.6263 118.032 13.2084 117.825 13.7792C117.411 13.6744 116.685 13.7792 115.438 13.7792C114.604 13.8043 113.773 13.8724 112.947 13.9833C113.777 11.5253 114.607 9.06736 115.541 6.71145C115.586 6.61009 115.601 6.49792 115.582 6.38865C115.564 6.27939 115.514 6.17779 115.438 6.09628C115.231 5.78736 114.814 5.88944 114.711 5.88944C114.36 5.92882 114.013 5.99803 113.674 6.09628C113.257 6.19836 112.74 6.30044 112.22 6.40252C112.013 6.40252 111.806 6.5046 111.493 6.5046C110.353 6.60668 109.106 6.81353 108.899 7.9391C108.482 9.98877 107.965 12.1378 107.342 14.5985C106.403 14.6507 105.468 14.7529 104.541 14.9047C102.877 15.1089 102.363 15.5199 102.047 16.1324V16.3392C102.047 16.8496 102.047 17.2607 102.36 17.5669C102.774 17.9779 103.604 17.9779 105.992 17.7737H106.612C106.302 19.1035 105.886 20.4359 105.575 21.6662L103.397 30.2625C102.474 31.8067 101.433 33.2795 100.283 34.6681C99.9295 35.137 99.5486 35.5855 99.1426 36.0112C97.9993 37.3544 97.169 38.1603 96.5483 38.3671C95.9249 38.4692 96.0284 36.3175 96.2353 35.0898C96.6518 32.9407 97.7924 30.378 98.5192 28.7393C99.0391 27.3048 99.5564 26.1766 99.6598 25.1531C99.9729 23.004 99.8694 21.5668 99.246 20.9544C98.8295 20.5433 98.3123 20.4413 97.5855 20.6454C97.482 20.6454 97.2724 20.5433 97.169 20.5433C96.2353 20.6454 94.5747 21.8865 92.8134 23.5144C92.2935 23.9227 91.6701 24.4358 91.5667 24.5379C90.633 24.8468 90.3226 24.8468 90.113 24.8468C90.1212 24.7673 90.159 24.6936 90.2192 24.64C91.1529 22.8993 91.0494 20.5433 90.4261 19.5199C90.329 19.3233 90.1829 19.1544 90.0014 19.0289C89.82 18.9035 89.6092 18.8256 89.3889 18.8026C88.7655 18.8026 86.6885 19.3157 85.6513 20.9517C84.9245 22.0772 84.821 23.5117 85.4444 25.1504C83.7839 32.4223 80.0463 38.6707 78.9111 39.5921C78.8077 39.0817 78.9111 37.7493 79.2242 36.7258C80.0408 33.7547 80.9882 30.2786 81.5081 28.3256C81.715 27.5197 81.9219 26.8911 81.9219 26.7891C82.1352 25.9604 82.0244 25.0828 81.6115 24.3311C81.0916 23.4097 80.0544 22.3835 77.4602 22.3835H77.1471C72.2689 22.6924 64.4834 28.2236 63.7565 35.1892V35.2913C63.7565 35.3934 63.1359 36.2127 62.9263 36.6344C61.8891 38.2731 60.1251 40.7311 59.1914 41.2415H59.0879C58.9818 41.2415 58.8783 41.1394 58.7749 40.8332C58.568 40.0138 58.8783 38.6841 59.0879 37.8621C59.2948 36.8386 59.5017 35.8124 59.8121 34.6869C59.9182 34.2785 60.0217 33.881 60.1251 33.5613C60.4354 32.3309 60.8519 30.9985 61.0588 29.7709C61.5788 27.106 61.3692 25.2632 60.6423 24.3418C60.469 24.1169 60.2508 23.9294 60.0013 23.7908C59.7518 23.6522 59.4762 23.5655 59.1914 23.5359C57.5308 23.5359 54.727 25.1746 52.1327 28.7608C52.3396 26.9153 52.1327 25.5829 51.5093 24.8683C51.3485 24.637 51.1307 24.4498 50.8764 24.3243C50.6221 24.1988 50.3397 24.1392 50.0556 24.1511C48.7082 24.1511 46.7345 25.2767 44.8671 27.2242C43.6203 28.4519 42.3763 30.7165 41.3282 32.7554C41.8482 31.012 42.3681 29.3733 42.7819 28.1457C43.0959 27.2251 43.3036 26.61 43.4053 26.3001C43.4809 26.0242 43.4438 25.73 43.3018 25.4808C43.1984 25.2767 42.6784 24.6749 40.0842 24.8683H39.9807C38.3202 24.9704 37.2821 25.2775 36.8665 25.7897C36.6608 26.0085 36.5487 26.2972 36.5535 26.5956C36.6569 27.517 35.9328 32.1268 35.3094 36.2234C34.7895 39.3987 34.3757 42.3698 34.2695 43.8042C34.2695 44.3147 34.2695 44.7257 34.4791 45.0319C34.6507 45.178 34.8737 45.2513 35.0998 45.2361C35.2466 45.2527 35.3945 45.2165 35.5163 45.134H35.6198C36.8665 44.9298 37.7975 44.6236 38.3202 44.2126C38.6305 43.9063 38.734 43.4067 38.8374 42.8694C38.9408 42.3828 39.08 41.9043 39.2539 41.4376C39.3573 41.2307 39.3573 41.0266 39.4608 40.9245C39.6677 40.3093 41.4317 36.1106 42.1585 34.7782L42.3681 34.3699C42.9888 33.2416 43.6122 32.014 44.2356 30.9878C44.7555 30.1819 45.2727 29.145 46.103 28.4277C46.3752 28.2424 46.6474 28.0731 46.9197 27.9146H47.3362C47.6465 28.3256 46.8162 30.4774 46.1928 32.014C45.6756 33.4458 45.0522 34.9689 44.7419 36.5189C43.702 40.8171 43.702 42.6652 44.7419 43.4846C45.0592 43.7532 45.4644 43.8992 45.8825 43.8956C47.2436 43.7935 48.4768 41.948 50.3469 36.8279C50.4504 36.6237 50.4504 36.4168 50.5538 36.2127C52.7316 31.603 54.9094 27.3021 56.4692 27.2001H56.6788C56.8857 27.7105 56.3657 29.145 55.8485 30.3753C55.3444 31.6439 54.9332 32.9465 54.6181 34.2732C54.0981 36.5243 53.3713 40.5189 54.9284 42.5685C55.2095 42.9594 55.5837 43.2761 56.0181 43.4907C56.4525 43.7052 56.9336 43.8111 57.4192 43.7989C60.6396 43.901 62.7139 40.2126 63.7511 37.5505C63.8564 39.4954 64.3754 40.9281 65.3082 41.8486C65.797 42.3185 66.3869 42.6735 67.0341 42.887C67.6813 43.1005 68.3689 43.167 69.0458 43.0816H69.1492C71.0194 42.8748 72.8868 40.7257 74.3405 38.574C74.9612 41.134 76.6244 42.5685 77.765 42.3644C79.9428 41.9534 83.4817 37.2416 85.5506 31.8125C86.119 30.2079 86.5693 28.565 86.8981 26.8965C87.603 27.2575 88.4017 27.4007 89.1902 27.3075C90.437 27.2054 91.9941 26.6923 93.5457 25.873C93.0258 26.8965 92.612 27.8179 92.5058 28.4331C91.7817 30.4828 91.0549 33.3491 91.0549 35.2966C91.0549 36.6398 91.6756 39.2912 93.1292 40.6236C93.8561 41.3409 94.6863 41.6471 95.5166 41.545H95.5983C95.7506 41.5441 95.9007 41.5083 96.0365 41.4403C98.1136 40.9272 100.291 38.6734 102.055 36.3175C101.642 38.1603 101.331 39.9037 101.018 41.7465C99.981 47.4818 100.291 51.1702 101.745 52.8088C102.679 53.9371 104.029 53.9371 104.549 53.9371H104.756C107.454 53.7302 109.217 50.2487 110.472 47.8928C110.552 47.7087 110.656 47.5361 110.783 47.3797C110.783 47.2777 110.992 47.0735 111.096 46.8693C112.653 47.9949 115.04 48.508 118.155 48.3012C118.401 48.3169 118.649 48.2822 118.881 48.1991C128.221 47.2777 134.553 46.3563 142.02 45.3328C145.445 44.8197 148.973 44.3066 153.021 43.7962C154.145 43.5934 155.286 43.4909 156.429 43.4899C162.448 43.0816 169.923 43.6968 171.374 49.4321V49.5342C171.48 49.9425 171.687 50.5577 172.19 50.4556C172.607 50.4556 172.814 50.0473 173.127 49.33C173.23 49.2279 173.23 49.0211 173.334 48.919C174.292 46.2569 174.292 44.1051 173.151 42.4665ZM119.799 30.7997C120.836 28.8548 121.77 27.1114 122.807 25.6796C125.091 22.3996 126.131 21.9913 126.441 21.9913C126.497 21.9845 126.554 21.9901 126.608 22.0078C126.661 22.0254 126.71 22.0547 126.751 22.0934C127.168 22.5044 127.271 23.732 127.064 25.1665C126.751 27.4203 125.3 31.2107 123.743 33.975C123.231 35.0167 122.527 35.955 121.666 36.7419C120.109 38.0716 119.695 37.0481 119.589 35.2053C119.486 34.1684 119.589 32.8387 119.799 30.7997ZM77.3322 25.3707C77.1253 25.6796 76.9184 26.1766 76.6081 26.7138C76.325 27.1388 76.0817 27.5884 75.8813 28.057C75.4241 29.1221 75.0421 30.2172 74.7379 31.3343C74.4276 32.3578 73.8042 35.3289 73.8042 36.8655C72.9876 37.889 72.1437 39.3235 70.8969 39.9386C69.1329 40.86 69.6529 36.1482 69.7563 35.3289C70.4831 30.515 73.2952 25.0859 75.9847 24.5836C76.181 24.5002 76.395 24.4651 76.6081 24.4815C77.1253 24.3794 77.3322 24.4815 77.4384 24.6857C77.5527 24.7448 77.5527 24.9516 77.3431 25.3599L77.3322 25.3707Z" fill="white"/>
<path d="M36.1371 12.5568C35.8349 16.5622 33.2297 19.1115 27.9405 21.0591C27.7336 21.0591 27.5267 21.0591 27.4233 20.8522C27.3714 20.7769 27.3437 20.688 27.3437 20.597C27.3437 20.506 27.3714 20.4171 27.4233 20.3418C29.8106 17.677 30.2244 15.9362 30.5375 14.3997C31.0547 11.7375 30.434 10.714 29.4976 9.99677C28.5639 9.3816 27.1102 9.17744 25.0359 9.27952H24.829C24.7228 9.27952 17.8737 9.89469 16.9346 16.0383C16.3112 19.9308 18.0752 21.0591 21.4997 23.106C22.912 23.8974 24.2648 24.788 25.5477 25.7709C31.3623 29.9696 33.1263 33.0428 31.9857 37.0373C30.6246 41.7491 25.4524 47.4845 15.274 48.3038H14.961C7.4885 48.8169 3.95779 46.2568 2.50685 44.6181C1.05592 42.9795 0.429807 40.8277 0.846305 38.8801C2.50685 31.1999 9.77244 30.0717 11.9502 29.9696H12.7805C12.9901 29.9696 13.197 30.0717 13.197 30.2758C13.2078 30.3569 13.1939 30.4393 13.1571 30.5125C13.1202 30.5857 13.0621 30.6464 12.9901 30.6869C12.8867 30.7889 6.96856 34.4773 7.17545 40.6263C7.28161 42.4691 7.69539 43.6994 8.62911 44.5188C9.77244 45.5431 11.8486 45.9524 14.8575 45.7464H15.1679C22.33 45.1312 26.0567 40.3173 25.9642 36.1186C25.8716 31.9199 21.4072 29.4565 17.8683 27.4095L17.3484 27.1006C13.9238 25.0536 9.97388 22.1846 10.2897 16.7556C10.6027 11.6354 17.0516 7.33194 25.6538 6.41053C30.7389 5.89744 33.3332 7.33193 34.58 8.55959C35.1183 9.07414 35.5365 9.69833 35.8054 10.3887C36.0744 11.079 36.1875 11.8189 36.1371 12.5568Z" fill="white"/>
<path d="M142.322 13.4783C136.51 10.201 142.528 5.8975 142.528 5.8975C144.605 4.47375 146.369 15.8342 142.322 13.4783Z" fill="white"/>
<path d="M154.988 7.42867C154.672 9.37009 153.589 11.1089 151.977 12.2641C150.523 13.2875 146.788 13.9027 146.165 13.4917C145.749 13.2875 145.852 12.8765 146.165 12.3661C145.722 12.4927 145.265 12.5613 144.804 12.5703C144.804 12.5703 144.181 7.1278 148.966 4.05464C150.836 3.43947 151.25 6.41055 150.006 8.97062C152.6 7.33196 155.195 6.51263 154.988 7.42867Z" fill="white"/>
</svg>
