<svg width="160" height="54" viewBox="0 0 160 54" fill="none" xmlns="http://www.w3.org/2000/svg">
<g clip-path="url(#clip0_120_1497)">
<path d="M119.217 32.9003H123.393V11.7032L119.217 12.0756V32.9003ZM121.292 3.08545C120.914 3.08518 120.539 3.16037 120.19 3.30663C119.841 3.45289 119.525 3.66727 119.26 3.93722C118.995 4.20718 118.787 4.52729 118.647 4.87881C118.507 5.23033 118.439 5.6062 118.446 5.98443C118.446 6.73919 118.746 7.46304 119.28 7.99675C119.813 8.53045 120.537 8.83027 121.292 8.83027C122.047 8.83027 122.77 8.53045 123.304 7.99675C123.838 7.46304 124.138 6.73919 124.138 5.98443C124.111 4.38851 122.861 3.08545 121.292 3.08545ZM155.255 11.7027L149.244 25.6656L142.835 11.7032H134.51V9.86804C134.51 7.68709 135.521 6.7828 137.595 6.7828C138.314 6.7956 139.028 6.89379 139.723 7.07532L140.654 3.75085C139.333 3.31126 137.949 3.09557 136.557 3.11268C132.514 3.11268 130.334 5.7457 130.334 9.57553V11.7032L126.77 11.9957V15.3476H130.334V32.9003H134.509V15.3203H139.962L147.195 30.4004C146.584 31.7302 145.839 33.2197 144.669 34.124C143.631 34.9484 142.302 35.0281 141.025 34.7622L140.041 38.1932C141.929 38.8847 144.296 38.8048 146.052 37.8474C147.966 36.7836 149.242 34.7889 150.094 32.8208L159.67 11.6233H155.229V11.7032L155.255 11.7027ZM105.387 29.7354C101.903 29.7088 98.9776 26.8364 98.9776 22.2885C98.9776 17.714 101.877 14.8681 105.387 14.815C108.871 14.8416 111.797 17.714 111.797 22.2885C111.797 26.8364 108.871 29.7354 105.387 29.7354ZM105.387 11.1181C104.189 11.1066 103.001 11.3334 101.891 11.7855C100.782 12.2375 99.7734 12.9057 98.9245 13.7512V3.69772L95.0153 4.04353V32.9269H98.9245V30.8791C99.7734 31.7245 100.782 32.3927 101.891 32.8447C103.001 33.2967 104.189 33.5236 105.387 33.5121C111.292 33.4855 115.813 28.8311 115.813 22.3151C115.813 15.7991 111.264 11.1711 105.387 11.1181ZM59.7216 14.8681C62.009 14.8947 64.0835 16.2512 65.2011 18.3262L68.5789 16.2251C67.6908 14.6627 66.4018 13.3656 64.8448 12.4679C63.2878 11.5702 61.5194 11.1044 59.7223 11.1186C53.7917 11.1452 49.2966 15.7996 49.2966 22.3156C49.2966 28.8316 53.7905 33.4594 59.7223 33.5126C61.5205 33.5324 63.2911 33.069 64.8491 32.1708C66.407 31.2725 67.6952 29.9723 68.5789 28.4061L65.2011 26.305C64.0842 28.4061 62.0103 29.7631 59.7216 29.7631C56.2376 29.7354 53.3117 26.863 53.3117 22.2885C53.3117 17.7141 56.2376 14.8947 59.7216 14.8681ZM80.5996 29.7354C77.1156 29.7088 74.1899 26.8364 74.1899 22.2885C74.1899 17.714 77.0891 14.8681 80.5996 14.815C84.0838 14.8416 87.0093 17.714 87.0093 22.2885C86.9828 26.8364 84.084 29.7354 80.5996 29.7354ZM87.0625 13.7512C86.2136 12.9057 85.2051 12.2375 84.0955 11.7855C82.986 11.3334 81.7977 11.1066 80.5996 11.1181C74.6953 11.1447 70.174 15.7991 70.174 22.3151C70.174 28.8311 74.6679 33.4589 80.5996 33.5121C81.7977 33.5236 82.986 33.2967 84.0955 32.8447C85.2051 32.3927 86.2136 31.7245 87.0625 30.8791V32.9269H90.9717V11.6766L87.0625 12.0224V13.7512ZM14.3751 30.2409L22.1945 38.1665L30.0129 30.2409C30.3529 29.8995 30.757 29.6286 31.202 29.4438C31.647 29.2589 32.1242 29.1638 32.606 29.1638C33.0879 29.1638 33.565 29.2589 34.01 29.4438C34.455 29.6286 34.8591 29.8995 35.1992 30.2409C35.8895 30.9434 36.2764 31.889 36.2764 32.8739C36.2764 33.8588 35.8895 34.8044 35.1992 35.5069L22.2202 48.672L9.18896 35.5068C5.74577 31.9896 3.8172 27.2637 3.81651 22.3417C3.81651 12.0756 12.0346 3.72428 22.1678 3.72428C24.5846 3.72722 26.9767 4.21075 29.2049 5.14676C31.4331 6.08277 33.4529 7.45256 35.1467 9.17642C35.8371 9.87895 36.2239 10.8245 36.2239 11.8094C36.2239 12.7944 35.8371 13.7399 35.1467 14.4425C34.8067 14.7838 34.4026 15.0547 33.9576 15.2396C33.5126 15.4244 33.0355 15.5196 32.5537 15.5196C32.0718 15.5196 31.5947 15.4244 31.1497 15.2396C30.7047 15.0547 30.3006 14.7838 29.9606 14.4425C28.9401 13.4048 27.7229 12.5811 26.3803 12.0194C25.0377 11.4577 23.5966 11.1693 22.1412 11.1711C16.0507 11.1711 11.1038 16.1712 11.1038 22.3681C11.1346 25.3167 12.3072 28.1386 14.3751 30.2407V30.2409ZM22.1678 14.8681C23.1332 14.8728 24.0882 15.0678 24.9782 15.442C25.8681 15.8163 26.6755 16.3624 27.3541 17.0491C28.0336 17.7378 28.8432 18.2846 29.7357 18.6579C30.6283 19.0311 31.5862 19.2233 32.5537 19.2233C33.5211 19.2233 34.479 19.0311 35.3716 18.6579C36.2642 18.2846 37.0737 17.7378 37.7532 17.0491C39.122 15.6378 39.8875 13.7491 39.8875 11.783C39.8875 9.81702 39.122 7.92825 37.7532 6.51701C35.7122 4.45839 33.2848 2.82312 30.6102 1.70505C27.9357 0.586975 25.0666 0.00812095 22.1678 0.00170904C10.0134 0.000873742 0.120166 10.0017 0.120166 22.3417C0.107856 28.2537 2.43057 33.9315 6.58301 38.1398L22.1678 53.9382L37.7532 38.1401C39.122 36.7289 39.8876 34.8401 39.8876 32.8741C39.8876 30.908 39.122 29.0193 37.7532 27.608C37.0737 26.9193 36.2642 26.3725 35.3716 25.9993C34.479 25.626 33.5211 25.4338 32.5537 25.4338C31.5862 25.4338 30.6283 25.626 29.7357 25.9993C28.8432 26.3725 28.0336 26.9193 27.3541 27.608L22.1678 32.9006L16.9816 27.608C15.6098 26.1993 14.8458 24.3083 14.8539 22.342C14.8369 21.3693 15.0133 20.4029 15.3728 19.4989C15.7324 18.5949 16.2679 17.7713 16.9483 17.076C17.6288 16.3807 18.4405 15.8274 19.3365 15.4484C20.2325 15.0694 21.1949 14.8722 22.1678 14.8681Z" fill="white"/>
</g>
<defs>
<clipPath id="clip0_120_1497">
<rect width="159.55" height="53.937" fill="white" transform="translate(0.119141)"/>
</clipPath>
</defs>
</svg>
