<svg width="140" height="55" viewBox="0 0 140 55" fill="none" xmlns="http://www.w3.org/2000/svg">
<path d="M73.7655 16.3635C70.714 13.9159 66.6476 12.3798 61.4975 12.3798C50.6186 12.3798 41.7948 21.7937 41.7948 33.4027C41.7948 45.0117 50.6186 54.4371 61.4975 54.4371C66.6567 54.4371 70.714 52.9033 73.7655 50.4534V53.668H84.3435V13.1237H73.7655V16.3635ZM63.091 44.6972C57.1694 44.6972 52.3752 39.6458 52.3752 33.4051C52.3752 27.1643 57.1694 22.122 63.091 22.122C66.0846 22.122 68.9557 23.3113 71.0725 25.4281C73.1893 27.5449 74.3785 30.4159 74.3785 33.4096C74.3785 36.4033 73.1893 39.2742 71.0725 41.3911C68.9557 43.5079 66.0846 44.6972 63.091 44.6972ZM126.592 53.6772H137.169V21.1439H126.592V53.6772ZM124.525 10.6692C124.525 12.6197 125.3 14.4904 126.679 15.8695C128.058 17.2487 129.929 18.0236 131.879 18.0236C133.83 18.0236 135.7 17.2487 137.08 15.8695C138.459 14.4904 139.234 12.6197 139.234 10.6692C139.234 5.0415 134.66 1.1175 128.04 0.984324C120.349 0.839672 110.645 5.01624 106.301 17.8605V13.1237H95.7298V53.6772H106.303V30.1032C106.303 14.9192 114.966 2.59158 127.976 2.72246C129.183 2.74251 130.38 2.94137 131.528 3.31256C129.64 3.40514 127.859 4.22075 126.556 5.59037C125.253 6.95997 124.526 8.77855 124.527 10.6692H124.525ZM42.8694 13.1237H27.9287L11.3671 28.8335V1.43895H0.789062V53.6772H11.3671V38.9087L27.9287 53.6772H42.7867L21.0244 33.4441L42.8694 13.1237Z" fill="white"/>
<path d="M22.3025 5.53296H24.858V4.36884H22.3025V2.60316H25.1565V1.43905H21.0557V8.53393H25.2644V7.36982H22.3025V5.53296ZM30.2929 7.48004C28.844 7.48004 27.8407 6.46747 27.8407 4.98648C27.8407 3.44582 28.8325 2.49294 30.1505 2.49294C30.7232 2.47656 31.2861 2.64303 31.7578 2.96824L32.3157 2.0498C31.7064 1.55615 30.9386 1.30074 30.1551 1.33113C27.8131 1.33113 26.525 2.95217 26.525 4.99108C26.525 7.20221 28.0174 8.65104 30.185 8.65104C31.1034 8.65104 32.0218 8.32728 32.4581 7.8497L31.9805 6.91749C31.4956 7.28644 30.9022 7.48426 30.2929 7.48004ZM35.1147 2.85802C34.8001 7.13562 34.0791 7.36982 33.5326 7.29864L33.5028 8.53393C34.9011 8.73829 35.8241 8.07472 36.2397 3.94178L36.3821 2.60316H38.4486V8.53393H39.6861V1.43905H35.2111L35.1147 2.85802ZM43.0659 6.49042V1.43905H41.8169V8.53393H42.9121L46.6272 3.50551V8.53393H47.874V1.43905H46.7788L43.0659 6.49042ZM56.7919 1.33113C54.6129 1.33113 53.1021 2.93839 53.1021 4.99108C53.1021 7.20221 54.6841 8.65104 56.7919 8.65104C58.8998 8.65104 60.4933 7.11955 60.4933 4.99108C60.4863 2.77537 58.8952 1.32654 56.785 1.32654L56.7919 1.33113ZM56.7919 7.48463C55.4648 7.48463 54.4201 6.41006 54.4201 4.99108C54.4201 3.52159 55.4349 2.49754 56.7919 2.49754C58.149 2.49754 59.1752 3.52159 59.1752 4.99108C59.1684 6.3848 58.2752 7.48004 56.785 7.48004L56.7919 7.48463ZM64.2886 4.12546C63.9701 4.12654 63.652 4.14647 63.3358 4.18515V2.60316H66.2358V1.43905H62.089V8.53393C62.5047 8.53393 63.1131 8.57526 63.9259 8.57526C65.6686 8.57526 66.6628 7.73489 66.6628 6.26311C66.672 4.95664 65.7696 4.12546 64.2886 4.12546ZM64.1256 7.40885C63.8639 7.40885 63.6205 7.39048 63.3358 7.36982V5.34238C63.6182 5.30465 63.9027 5.2847 64.1876 5.28268C65.0601 5.28268 65.4344 5.7419 65.4344 6.34576C65.4344 6.94964 65.0486 7.40885 64.1256 7.40885ZM71.294 5.57199L68.9014 1.43905H67.4044L70.6305 6.82106L69.7648 8.55689H71.092L74.6416 1.43905H73.3122L71.294 5.57199ZM79.0709 4.79132V4.77066C79.3838 4.63835 79.6488 4.41344 79.8302 4.12613C80.0117 3.83881 80.1009 3.50286 80.0857 3.1634C80.0857 2.18067 79.4474 1.4092 77.7529 1.4092C77.0434 1.4092 76.102 1.44134 75.7048 1.45971V8.52474C76.1204 8.55459 77.0342 8.57526 77.6818 8.57526C79.1834 8.57526 80.3199 7.9071 80.3199 6.44679C80.3448 6.06718 80.2324 5.69125 80.0031 5.38771C79.7737 5.08418 79.4429 4.8733 79.0709 4.79361V4.79132ZM76.9515 2.60087C77.1811 2.58019 77.4498 2.57101 77.7345 2.57101C78.4026 2.57101 78.8482 2.87639 78.8482 3.4527C78.8482 4.1025 78.3728 4.3964 77.7942 4.3964H76.9515V2.60087ZM77.7735 7.40885C77.4988 7.40823 77.2244 7.39137 76.9515 7.35834V5.48244H77.8355C78.6162 5.48244 79.0709 5.78783 79.0709 6.3848C79.0709 7.05526 78.6162 7.40885 77.7735 7.40885ZM84.1819 3.82009C83.9109 3.82104 83.6403 3.8379 83.3714 3.87059V1.43905H82.1224V8.53393C82.5402 8.53393 83.2383 8.55459 83.9179 8.55459C85.8052 8.55459 86.8592 7.6132 86.8592 6.11157C86.8592 4.72244 86.0164 3.82009 84.1819 3.82009ZM84.0602 7.39048C83.8169 7.39048 83.601 7.36982 83.3714 7.35834V5.037C83.6538 5.00716 83.8972 4.98648 84.0809 4.98648C84.9534 4.98648 85.5412 5.34238 85.5412 6.13452C85.5435 7.01393 84.9717 7.39048 84.0602 7.39048ZM88.5285 7.14711C88.4268 7.13675 88.3243 7.14842 88.2276 7.18133C88.1311 7.21425 88.0426 7.26761 87.9686 7.33779C87.8945 7.40797 87.8364 7.49332 87.7983 7.58801C87.7601 7.68269 87.7429 7.78448 87.7477 7.88644C87.7339 8.04011 87.78 8.1932 87.8762 8.31381C87.9724 8.43442 88.1115 8.51327 88.2644 8.53393C88.347 8.53393 88.4687 8.53393 88.5285 8.45358C88.5543 8.61242 88.5225 8.77528 88.4388 8.91279C88.3812 9.04223 88.2956 9.15744 88.1885 9.25028C88.0814 9.34311 87.9552 9.4113 87.8189 9.45007L88.1334 9.99883C88.5134 9.90276 88.8488 9.67897 89.0832 9.36502C89.3178 9.05107 89.4372 8.66604 89.4216 8.27447C89.4239 7.62239 89.0795 7.14711 88.5285 7.14711ZM92.4823 2.60316H94.7783V8.53393H96.0251V2.60316H98.3212V1.43905H92.4845L92.4823 2.60316ZM102.42 1.32654C100.241 1.32654 98.7299 2.9338 98.7299 4.98648C98.7299 7.19761 100.312 8.64643 102.42 8.64643C104.528 8.64643 106.121 7.11496 106.121 4.98648C106.123 2.77537 104.53 1.32654 102.422 1.32654H102.42ZM102.42 7.48004C101.09 7.48004 100.048 6.40547 100.048 4.98648C100.048 3.517 101.06 2.49294 102.42 2.49294C103.779 2.49294 104.803 3.517 104.803 4.98648C104.805 6.3848 103.912 7.48004 102.422 7.48004H102.42Z" fill="white"/>
</svg>
